<svg xmlns="http://www.w3.org/2000/svg" version="1.1" xmlns:xlink="http://www.w3.org/1999/xlink" xmlns:svgjs="http://svgjs.dev/svgjs" width="128" height="128" viewBox="0 0 128 128"><g transform="matrix(0.8046875,0,0,0.8046875,12.760752631578946,12.760752631578946)"><svg viewBox="0 0 95 95" data-background-color="#131313" preserveAspectRatio="xMidYMid meet" height="128" width="128" xmlns="http://www.w3.org/2000/svg" xmlns:xlink="http://www.w3.org/1999/xlink"><g id="tight-bounds" transform="matrix(1,0,0,1,-0.24049999999999727,-0.24049999999999727)"><svg viewBox="0 0 95.481 95.481" height="95.481" width="95.481"><g><svg viewBox="0 0 95.481 95.481" height="95.481" width="95.481"><g><svg viewBox="0 0 95.481 95.481" height="95.481" width="95.481"><g id="textblocktransform"><svg viewBox="0 0 95.481 95.481" height="95.481" width="95.481" id="textblock"><g><svg viewBox="0 0 95.481 95.481" height="95.481" width="95.481"><g><svg viewBox="0 0 95.481 95.481" height="95.481" width="95.481"><g><svg xmlns="http://www.w3.org/2000/svg" xmlns:xlink="http://www.w3.org/1999/xlink" xml:space="preserve" version="1.1" style="shape-rendering:geometricPrecision;text-rendering:geometricPrecision;image-rendering:optimizeQuality;" viewBox="0 0 6532 6532" x="0" y="0" fill-rule="evenodd" clip-rule="evenodd" height="95.481" width="95.481" class="icon-icon-0" data-fill-palette-color="accent" id="icon-0"><g fill="#0284c7" data-fill-palette-color="accent"><path class="" d="M3266 0C4168 0 4984 366 5575 957S6532 2364 6532 3266 6166 4984 5575 5575 4168 6532 3266 6532 1548 6166 957 5575 0 4168 0 3266 366 1548 957 957 2364 0 3266 0M5383 1149C4841 608 4093 272 3266 272S1691 608 1149 1149C608 1691 272 2439 272 3266S608 4841 1149 5383C1691 5924 2439 6260 3266 6260S4841 5924 5383 5383C5924 4841 6260 4093 6260 3266S5924 1691 5383 1149M3266 1429C3446 1429 3610 1502 3728 1621 3847 1739 3921 1903 3921 2083 3921 2264 3847 2427 3729 2546 3721 2554 3712 2562 3704 2570L4325 3647C4389 3626 4457 3615 4528 3615 4709 3615 4873 3688 4991 3807 5110 3925 5183 4089 5183 4270 5183 4450 5110 4614 4991 4733 4872 4851 4709 4924 4528 4924S4184 4851 4065 4733C3977 4645 3914 4532 3888 4406H2644C2617 4532 2554 4644 2467 4732 2348 4851 2184 4924 2004 4924 1823 4924 1660 4851 1541 4733 1422 4614 1349 4450 1349 4270 1349 4089 1422 3925 1541 3807S1824 3615 2004 3615C2075 3615 2143 3626 2207 3647L2828 2570C2820 2563 2811 2555 2803 2547 2684 2428 2611 2264 2611 2083 2611 1903 2684 1739 2803 1621 2922 1502 3086 1429 3266 1429M3469 2706C3405 2727 3337 2738 3266 2738S3127 2727 3063 2706L2441 3783C2450 3791 2458 3799 2466 3807 2554 3895 2617 4008 2644 4134H3888C3914 4007 3977 3895 4065 3807 4073 3799 4082 3791 4090 3783L3779 3244zM2274 3999C2205 3930 2110 3887 2004 3887S1802 3930 1733 3999 1621 4164 1621 4270C1621 4375 1664 4471 1733 4540S1898 4652 2004 4652 2205 4609 2274 4541C2343 4471 2386 4376 2386 4270S2343 4068 2274 3999M4799 3999C4730 3930 4634 3887 4528 3887 4423 3887 4327 3930 4258 3999S4146 4164 4146 4270C4146 4375 4189 4471 4258 4540S4423 4652 4528 4652C4634 4652 4730 4609 4799 4540S4911 4375 4911 4270C4911 4164 4868 4068 4799 3999M3537 1813C3468 1744 3372 1701 3266 1701S3064 1744 2995 1813 2883 1978 2883 2083C2883 2189 2926 2285 2996 2354 3065 2423 3160 2466 3266 2466S3468 2423 3537 2354 3648 2189 3648 2083C3648 1978 3606 1882 3537 1813" fill="#0284c7" fill-rule="nonzero" data-fill-palette-color="accent"></path></g></svg></g></svg></g></svg></g></svg></g></svg></g><g></g></svg></g><defs></defs></svg><rect width="95.481" height="95.481" fill="none" stroke="none" visibility="hidden"></rect></g></svg></g></svg>