<svg width="47" height="47" viewBox="0 0 47 47" fill="none" xmlns="http://www.w3.org/2000/svg">
<mask id="mask0_7_18" style="mask-type:luminance" maskUnits="userSpaceOnUse" x="0" y="0" width="47" height="47">
<path d="M47 0H0V47H47V0Z" fill="white"/>
</mask>
<g mask="url(#mask0_7_18)">
<path d="M4.60068 20.6103C4.40979 19.8981 4.40976 19.1481 4.6006 18.4359C4.79144 17.7237 5.16641 17.0742 5.68783 16.5528L16.553 5.68768C17.0744 5.16626 17.7238 4.79129 18.4361 4.60045C19.1483 4.40961 19.8982 4.40964 20.6104 4.60053L30.7775 7.32479C30.8833 5.93193 31.3683 4.59456 32.1798 3.45754L19.9343 0.176704C19.0553 -0.0587843 18.1299 -0.0587794 17.251 0.17672C16.372 0.412219 15.5705 0.874917 14.9271 1.51831L1.5187 14.9267C0.87531 15.5702 0.412614 16.3716 0.177116 17.2506C-0.0583826 18.1295 -0.0583877 19.0549 0.177101 19.9339L3.58415 32.649C4.69792 31.7985 6.02394 31.2702 7.41748 31.1221L4.60068 20.6103Z" fill="#18CDCA"/>
<path d="M39.4896 15.5266L42.4005 26.3898C42.5915 27.1021 42.5912 27.852 42.4005 28.5641C42.2095 29.2764 41.8345 29.9258 41.3131 30.4472L30.4479 41.3126C29.9265 41.834 29.2772 42.2088 28.5648 42.3998C27.8527 42.5905 27.1026 42.5905 26.3905 42.3998L15.8787 39.583C15.7306 40.9766 15.2024 42.3026 14.3517 43.4163L27.0669 46.8233C27.9458 47.0589 28.8713 47.0589 29.7501 46.8233C30.6292 46.5878 31.4306 46.1253 32.0741 45.4817L45.4825 32.0733C46.126 31.4298 46.5885 30.6285 46.8241 29.7494C47.0597 28.8705 47.0597 27.945 46.8241 27.0662L43.2885 13.875C42.1983 14.7648 40.8837 15.3364 39.4896 15.5266Z" fill="#18CDCA"/>
<path d="M3.88972 34.4026C3.02859 35.2636 2.44215 36.361 2.20456 37.5552C1.96697 38.7497 2.08891 39.9878 2.55495 41.113C3.02096 42.2378 3.81017 43.1996 4.82272 43.8762C5.8353 44.5526 7.02574 44.9139 8.24356 44.9139C9.46135 44.9139 10.6518 44.5526 11.6644 43.8762C12.6769 43.1996 13.4662 42.2378 13.9322 41.113C14.3982 39.9878 14.5201 38.7497 14.2825 37.5552C14.045 36.361 13.4585 35.2636 12.5974 34.4026C11.4418 33.2497 9.876 32.6021 8.24356 32.6021C6.61112 32.6021 5.04533 33.2497 3.88972 34.4026Z" fill="#0088CC"/>
<path d="M34.0845 3.572C33.2235 4.43311 32.6368 5.53023 32.3994 6.72465C32.1618 7.91904 32.2837 9.15707 32.7497 10.2822C33.2158 11.4073 34.0049 12.3689 35.0174 13.0455C36.0301 13.7221 37.2205 14.0832 38.4382 14.0832C39.6561 14.0832 40.8465 13.7221 41.8592 13.0455C42.8717 12.3689 43.6608 11.4073 44.1269 10.2822C44.5929 9.15707 44.7148 7.91904 44.4772 6.72465C44.2398 5.53023 43.6531 4.43311 42.7921 3.572C41.6367 2.41899 40.0707 1.77145 38.4382 1.77145C36.8059 1.77145 35.2399 2.41899 34.0845 3.572Z" fill="#0088CC"/>
<path d="M27.1146 39.8216C26.8672 39.8216 26.6212 39.7892 26.3823 39.7252L16.7601 37.1468C16.4392 35.4335 15.608 33.857 14.3755 32.6246C13.1429 31.3921 11.5665 30.5607 9.8532 30.2399L7.27503 20.6185C7.14722 20.1385 7.14758 19.6335 7.27613 19.1538C7.40468 18.674 7.65689 18.2365 8.00753 17.8848L17.8837 8.00834C18.235 7.65701 18.6726 7.40437 19.1525 7.27577C19.6325 7.14719 20.1378 7.14721 20.6176 7.27584L29.9701 9.78185C30.3411 11.4846 31.2176 13.0356 32.4851 14.2317C33.7525 15.4277 35.3516 16.2132 37.0728 16.485L39.7244 26.3831C39.8521 26.8632 39.8519 27.3683 39.7231 27.8479C39.5946 28.3277 39.3425 28.7652 38.9917 29.1171L29.1155 38.9932C28.8534 39.2566 28.5413 39.4657 28.1979 39.6077C27.8545 39.75 27.4863 39.8226 27.1146 39.8216Z" fill="#0088CC"/>
</g>
</svg>
